{
  "accessors": [
    {
      "bufferView": 0,
      "componentType": 5126,
      "count": 9088,
      "max": [
        1.0457261800765991,
        1.0167895555496216,
        0.5838177800178528
      ],
      "min": [
        -1.0921599864959717,
        -0.9805359840393066,
        -1.1989200115203857
      ],
      "type": "VEC3"
    },
    {
      "bufferView": 1,
      "componentType": 5125,
      "count": 13462,
      "type": "SCALAR"
    },
    {
      "bufferView": 2,
      "componentType": 5126,
      "count": 9088,
      "type": "VEC3"
    },
    {
      "bufferView": 3,
      "componentType": 5126,
      "count": 9088,
      "max": [
        1.0457261800765991,
        1.0167895555496216,
        0.5838177800178528
      ],
      "min": [
        -1.0921599864959717,
        -0.9805359840393066,
        -1.1989200115203857
      ],
      "type": "VEC3"
    },
    {
      "bufferView": 4,
      "componentType": 5125,
      "count": 120,
      "type": "SCALAR"
    },
    {
      "bufferView": 5,
      "componentType": 5126,
      "count": 9088,
      "type": "VEC3"
    }
  ],
  "asset": {
    "version": "2.0"
  },
  "bufferViews": [
    {
      "buffer": 0,
      "byteLength": 109056,
      "target": 34962
    },
    {
      "buffer": 1,
      "byteLength": 53848,
      "target": 34963
    },
    {
      "buffer": 2,
      "byteLength": 109056,
      "target": 34962
    },
    {
      "buffer": 0,
      "byteLength": 109056,
      "target": 34962
    },
    {
      "buffer": 3,
      "byteLength": 480,
      "target": 34963
    },
    {
      "buffer": 2,
      "byteLength": 109056,
      "target": 34962
    }
  ],
  "buffers": [
    {
      "byteLength": 109056,
      "uri": "data:application/octet-stream;base64,"
    },
    {
      "byteLength": 53848,
      "uri": "data:application/octet-stream;base64,"
    },
    {
      "byteLength": 109056,
      "uri": "data:application/octet-stream;base64,"
    },
    {
      "byteLength": 480,
      "uri": "data:application/octet-stream;base64,"
    }
  ],
  "meshes": [
    {
      "name": "Cube__0",
      "primitives": [
        {
          "attributes": {
            "NORMAL": 2,
            "POSITION": 0
          },
          "indices": 1,
          "mode": 5
        },
        {
          "attributes": {
            "NORMAL": 5,
            "POSITION": 3
          },
          "indices": 4,
          "mode": 4
        }
      ]
    }
  ],
  "nodes": [
    {
      "mesh": 0,
      "name": "Cube__0"
    },
    {
      "children": [
        0
      ],
      "name": "Cube"
    },
    {
      "children": [
        1
      ],
      "name": "RootNode"
    },
    {
      "children": [
        2
      ],
      "name": "Aquarius Constellation",
      "rotation": [
        -0.0,
        1.1102230246251565e-16,
        1.0,
        0.0
      ],
      "scale": [
        -1.0,
        -1.0,
        -1.0
      ],
      "translation": [
        0.0,
        0.0,
        0.0
      ]
    }
  ],
  "scene": 0,
  "scenes": [
    {
      "nodes": [
        3
      ]
    }
  ]
}
