{
  "accessors": [
    {
      "bufferView": 0,
      "componentType": 5126,
      "count": 10236,
      "max": [
        1.189215064048767,
        0.33935073018074036,
        0.1837669312953949
      ],
      "min": [
        -1.3575299978256226,
        -0.7382739782333374,
        -0.6547409892082214
      ],
      "type": "VEC3"
    },
    {
      "bufferView": 1,
      "componentType": 5125,
      "count": 4566,
      "type": "SCALAR"
    },
    {
      "bufferView": 2,
      "componentType": 5126,
      "count": 10236,
      "type": "VEC3"
    },
    {
      "bufferView": 3,
      "componentType": 5126,
      "count": 10236,
      "max": [
        1.189215064048767,
        0.33935073018074036,
        0.1837669312953949
      ],
      "min": [
        -1.3575299978256226,
        -0.7382739782333374,
        -0.6547409892082214
      ],
      "type": "VEC3"
    },
    {
      "bufferView": 4,
      "componentType": 5125,
      "count": 7197,
      "type": "SCALAR"
    },
    {
      "bufferView": 5,
      "componentType": 5126,
      "count": 10236,
      "type": "VEC3"
    }
  ],
  "asset": {
    "version": "2.0"
  },
  "bufferViews": [
    {
      "buffer": 0,
      "byteLength": 122832,
      "target": 34962
    },
    {
      "buffer": 1,
      "byteLength": 18264,
      "target": 34963
    },
    {
      "buffer": 2,
      "byteLength": 122832,
      "target": 34962
    },
    {
      "buffer": 0,
      "byteLength": 122832,
      "target": 34962
    },
    {
      "buffer": 3,
      "byteLength": 28788,
      "target": 34963
    },
    {
      "buffer": 2,
      "byteLength": 122832,
      "target": 34962
    }
  ],
  "buffers": [
    {
      "byteLength": 122832,
      "uri": "data:application/octet-stream;base64,"
    },
    {
      "byteLength": 18264,
      "uri": "data:application/octet-stream;base64,"
    },
    {
      "byteLength": 122832,
      "uri": "data:application/octet-stream;base64,"
    },
    {
      "byteLength": 28788,
      "uri": "data:application/octet-stream;base64,"
    }
  ],
  "meshes": [
    {
      "name": "Aquila__0",
      "primitives": [
        {
          "attributes": {
            "NORMAL": 2,
            "POSITION": 0
          },
          "indices": 1,
          "mode": 5
        },
        {
          "attributes": {
            "NORMAL": 5,
            "POSITION": 3
          },
          "indices": 4,
          "mode": 4
        }
      ]
    }
  ],
  "nodes": [
    {
      "mesh": 0,
      "name": "Aquila__0"
    },
    {
      "children": [
        0
      ],
      "name": "Aquila"
    },
    {
      "children": [
        1
      ],
      "name": "RootNode"
    },
    {
      "children": [
        2
      ],
      "name": "Aquila Constellation",
      "rotation": [
        -0.0,
        1.1102230246251565e-16,
        1.0,
        0.0
      ],
      "scale": [
        -1.0,
        -1.0,
        -1.0
      ],
      "translation": [
        0.0,
        0.0,
        0.0
      ]
    }
  ],
  "scene": 0,
  "scenes": [
    {
      "nodes": [
        3
      ]
    }
  ]
}
