{
  "accessors": [
    {
      "bufferView": 0,
      "componentType": 5126,
      "count": 5434,
      "max": [
        0.6032506823539734,
        1.1038830280303955,
        0.23042361438274384
      ],
      "min": [
        -0.4736039936542511,
        -1.2283999919891357,
        -0.3568199872970581
      ],
      "type": "VEC3"
    },
    {
      "bufferView": 1,
      "componentType": 5125,
      "count": 7720,
      "type": "SCALAR"
    },
    {
      "bufferView": 2,
      "componentType": 5126,
      "count": 5434,
      "type": "VEC3"
    },
    {
      "bufferView": 3,
      "componentType": 5126,
      "count": 5434,
      "max": [
        0.6032506823539734,
        1.1038830280303955,
        0.23042361438274384
      ],
      "min": [
        -0.4736039936542511,
        -1.2283999919891357,
        -0.3568199872970581
      ],
      "type": "VEC3"
    },
    {
      "bufferView": 4,
      "componentType": 5125,
      "count": 291,
      "type": "SCALAR"
    },
    {
      "bufferView": 5,
      "componentType": 5126,
      "count": 5434,
      "type": "VEC3"
    }
  ],
  "asset": {
    "version": "2.0"
  },
  "bufferViews": [
    {
      "buffer": 0,
      "byteLength": 65208,
      "target": 34962
    },
    {
      "buffer": 1,
      "byteLength": 30880,
      "target": 34963
    },
    {
      "buffer": 2,
      "byteLength": 65208,
      "target": 34962
    },
    {
      "buffer": 0,
      "byteLength": 65208,
      "target": 34962
    },
    {
      "buffer": 3,
      "byteLength": 1164,
      "target": 34963
    },
    {
      "buffer": 2,
      "byteLength": 65208,
      "target": 34962
    }
  ],
  "buffers": [
    {
      "byteLength": 65208,
      "uri": "data:application/octet-stream;base64,"
    },
    {
      "byteLength": 30880,
      "uri": "data:application/octet-stream;base64,"
    },
    {
      "byteLength": 65208,
      "uri": "data:application/octet-stream;base64,"
    },
    {
      "byteLength": 1164,
      "uri": "data:application/octet-stream;base64,"
    }
  ],
  "meshes": [
    {
      "name": "Cas__0",
      "primitives": [
        {
          "attributes": {
            "NORMAL": 2,
            "POSITION": 0
          },
          "indices": 1,
          "mode": 5
        },
        {
          "attributes": {
            "NORMAL": 5,
            "POSITION": 3
          },
          "indices": 4,
          "mode": 4
        }
      ]
    }
  ],
  "nodes": [
    {
      "mesh": 0,
      "name": "Cas__0"
    },
    {
      "children": [
        0
      ],
      "name": "Cas"
    },
    {
      "children": [
        1
      ],
      "name": "RootNode"
    },
    {
      "children": [
        2
      ],
      "name": "Cassiopeia Constellation",
      "rotation": [
        -0.0,
        1.1102230246251565e-16,
        1.0,
        0.0
      ],
      "scale": [
        -1.0,
        -1.0,
        -1.0
      ],
      "translation": [
        0.0,
        0.0,
        0.0
      ]
    }
  ],
  "scene": 0,
  "scenes": [
    {
      "nodes": [
        3
      ]
    }
  ]
}
