{
  "accessors": [
    {
      "bufferView": 0,
      "componentType": 5126,
      "count": 11260,
      "max": [
        0.7203100323677063,
        0.8977323174476624,
        0.1287427693605423
      ],
      "min": [
        -0.8977310061454773,
        -0.7203119993209839,
        -0.4769879877567291
      ],
      "type": "VEC3"
    },
    {
      "bufferView": 1,
      "componentType": 5125,
      "count": 16290,
      "type": "SCALAR"
    },
    {
      "bufferView": 2,
      "componentType": 5126,
      "count": 11260,
      "type": "VEC3"
    },
    {
      "bufferView": 3,
      "componentType": 5126,
      "count": 11260,
      "max": [
        0.7203100323677063,
        0.8977323174476624,
        0.1287427693605423
      ],
      "min": [
        -0.8977310061454773,
        -0.7203119993209839,
        -0.4769879877567291
      ],
      "type": "VEC3"
    },
    {
      "bufferView": 4,
      "componentType": 5125,
      "count": 402,
      "type": "SCALAR"
    },
    {
      "bufferView": 5,
      "componentType": 5126,
      "count": 11260,
      "type": "VEC3"
    }
  ],
  "asset": {
    "version": "2.0"
  },
  "bufferViews": [
    {
      "buffer": 0,
      "byteLength": 135120,
      "target": 34962
    },
    {
      "buffer": 1,
      "byteLength": 65160,
      "target": 34963
    },
    {
      "buffer": 2,
      "byteLength": 135120,
      "target": 34962
    },
    {
      "buffer": 0,
      "byteLength": 135120,
      "target": 34962
    },
    {
      "buffer": 3,
      "byteLength": 1608,
      "target": 34963
    },
    {
      "buffer": 2,
      "byteLength": 135120,
      "target": 34962
    }
  ],
  "buffers": [
    {
      "byteLength": 135120,
      "uri": "data:application/octet-stream;base64,"
    },
    {
      "byteLength": 65160,
      "uri": "data:application/octet-stream;base64,"
    },
    {
      "byteLength": 135120,
      "uri": "data:application/octet-stream;base64,"
    },
    {
      "byteLength": 1608,
      "uri": "data:application/octet-stream;base64,"
    }
  ],
  "meshes": [
    {
      "name": "Cyg__0",
      "primitives": [
        {
          "attributes": {
            "NORMAL": 2,
            "POSITION": 0
          },
          "indices": 1,
          "mode": 5
        },
        {
          "attributes": {
            "NORMAL": 5,
            "POSITION": 3
          },
          "indices": 4,
          "mode": 4
        }
      ]
    }
  ],
  "nodes": [
    {
      "mesh": 0,
      "name": "Cyg__0"
    },
    {
      "children": [
        0
      ],
      "name": "Cyg"
    },
    {
      "children": [
        1
      ],
      "name": "RootNode"
    },
    {
      "children": [
        2
      ],
      "name": "Cygnus constellation",
      "rotation": [
        -0.0,
        1.1102230246251565e-16,
        1.0,
        0.0
      ],
      "scale": [
        -1.0,
        -1.0,
        -1.0
      ],
      "translation": [
        0.0,
        0.0,
        0.0
      ]
    }
  ],
  "scene": 0,
  "scenes": [
    {
      "nodes": [
        3
      ]
    }
  ]
}
