{
  "accessors": [
    {
      "bufferView": 0,
      "componentType": 5126,
      "count": 424,
      "max": [
        0.1540975123643875,
        0.500459611415863,
        0.32078954577445984
      ],
      "min": [
        -0.42178499698638916,
        -0.509128987789154,
        -0.19782200455665588
      ],
      "type": "VEC3"
    },
    {
      "bufferView": 1,
      "componentType": 5125,
      "count": 544,
      "type": "SCALAR"
    },
    {
      "bufferView": 2,
      "componentType": 5126,
      "count": 424,
      "type": "VEC3"
    },
    {
      "bufferView": 3,
      "componentType": 5126,
      "count": 424,
      "max": [
        0.1540975123643875,
        0.500459611415863,
        0.32078954577445984
      ],
      "min": [
        -0.42178499698638916,
        -0.509128987789154,
        -0.19782200455665588
      ],
      "type": "VEC3"
    },
    {
      "bufferView": 4,
      "componentType": 5125,
      "count": 60,
      "type": "SCALAR"
    },
    {
      "bufferView": 5,
      "componentType": 5126,
      "count": 424,
      "type": "VEC3"
    },
    {
      "bufferView": 6,
      "componentType": 5126,
      "count": 5232,
      "max": [
        1.0054775476455688,
        1.1142460107803345,
        1.457972764968872
      ],
      "min": [
        -1.2103999853134155,
        -2.914249897003174,
        -1.41143000125885
      ],
      "type": "VEC3"
    },
    {
      "bufferView": 7,
      "componentType": 5125,
      "count": 7664,
      "type": "SCALAR"
    },
    {
      "bufferView": 8,
      "componentType": 5126,
      "count": 5232,
      "type": "VEC3"
    },
    {
      "bufferView": 9,
      "componentType": 5126,
      "count": 5232,
      "max": [
        1.0054775476455688,
        1.1142460107803345,
        1.457972764968872
      ],
      "min": [
        -1.2103999853134155,
        -2.914249897003174,
        -1.41143000125885
      ],
      "type": "VEC3"
    },
    {
      "bufferView": 10,
      "componentType": 5125,
      "count": 132,
      "type": "SCALAR"
    },
    {
      "bufferView": 11,
      "componentType": 5126,
      "count": 5232,
      "type": "VEC3"
    },
    {
      "bufferView": 12,
      "componentType": 5126,
      "count": 5232,
      "max": [
        1.0832905769348145,
        1.223425030708313,
        0.803206205368042
      ],
      "min": [
        -1.272089958190918,
        -3.1909101009368896,
        -1.4326499700546265
      ],
      "type": "VEC3"
    },
    {
      "bufferView": 13,
      "componentType": 5125,
      "count": 7664,
      "type": "SCALAR"
    },
    {
      "bufferView": 14,
      "componentType": 5126,
      "count": 5232,
      "type": "VEC3"
    },
    {
      "bufferView": 15,
      "componentType": 5126,
      "count": 5232,
      "max": [
        1.0832905769348145,
        1.223425030708313,
        0.803206205368042
      ],
      "min": [
        -1.272089958190918,
        -3.1909101009368896,
        -1.4326499700546265
      ],
      "type": "VEC3"
    },
    {
      "bufferView": 16,
      "componentType": 5125,
      "count": 132,
      "type": "SCALAR"
    },
    {
      "bufferView": 17,
      "componentType": 5126,
      "count": 5232,
      "type": "VEC3"
    },
    {
      "bufferView": 18,
      "componentType": 5126,
      "count": 388,
      "max": [
        0.3786452114582062,
        0.7636231780052185,
        0.012345799244940281
      ],
      "min": [
        -0.052684299647808075,
        -0.7275140285491943,
        -0.013415900059044361
      ],
      "type": "VEC3"
    },
    {
      "bufferView": 19,
      "componentType": 5125,
      "count": 580,
      "type": "SCALAR"
    },
    {
      "bufferView": 20,
      "componentType": 5126,
      "count": 388,
      "type": "VEC3"
    },
    {
      "bufferView": 21,
      "componentType": 5126,
      "count": 388,
      "max": [
        0.3786452114582062,
        0.7636231780052185,
        0.012345799244940281
      ],
      "min": [
        -0.052684299647808075,
        -0.7275140285491943,
        -0.013415900059044361
      ],
      "type": "VEC3"
    },
    {
      "bufferView": 22,
      "componentType": 5125,
      "count": 3,
      "type": "SCALAR"
    },
    {
      "bufferView": 23,
      "componentType": 5126,
      "count": 388,
      "type": "VEC3"
    },
    {
      "bufferView": 24,
      "componentType": 5126,
      "count": 256,
      "max": [
        0.023446157574653625,
        0.6037046313285828,
        0.013019224628806114
      ],
      "min": [
        -0.023445699363946915,
        -0.35815200209617615,
        -0.023714600130915642
      ],
      "type": "VEC3"
    },
    {
      "bufferView": 25,
      "componentType": 5125,
      "count": 348,
      "type": "SCALAR"
    },
    {
      "bufferView": 26,
      "componentType": 5126,
      "count": 256,
      "type": "VEC3"
    },
    {
      "bufferView": 27,
      "componentType": 5126,
      "count": 256,
      "max": [
        0.023446157574653625,
        0.6037046313285828,
        0.013019224628806114
      ],
      "min": [
        -0.023445699363946915,
        -0.35815200209617615,
        -0.023714600130915642
      ],
      "type": "VEC3"
    },
    {
      "bufferView": 28,
      "componentType": 5125,
      "count": 27,
      "type": "SCALAR"
    },
    {
      "bufferView": 29,
      "componentType": 5126,
      "count": 256,
      "type": "VEC3"
    },
    {
      "bufferView": 30,
      "componentType": 5126,
      "count": 32,
      "max": [
        0.1923806071281433,
        0.033233750611543655,
        0.002999546006321907
      ],
      "min": [
        -0.0006476049893535674,
        -1.36489999294281,
        -0.006374670192599297
      ],
      "type": "VEC3"
    },
    {
      "bufferView": 31,
      "componentType": 5125,
      "count": 58,
      "type": "SCALAR"
    },
    {
      "bufferView": 32,
      "componentType": 5126,
      "count": 32,
      "type": "VEC3"
    },
    {
      "bufferView": 33,
      "componentType": 5126,
      "count": 192,
      "max": [
        0.06443321704864502,
        1.865727424621582,
        0.04038773849606514
      ],
      "min": [
        -0.06443279981613159,
        -1.340980052947998,
        -0.040387701243162155
      ],
      "type": "VEC3"
    },
    {
      "bufferView": 34,
      "componentType": 5125,
      "count": 250,
      "type": "SCALAR"
    },
    {
      "bufferView": 35,
      "componentType": 5126,
      "count": 192,
      "type": "VEC3"
    },
    {
      "bufferView": 36,
      "componentType": 5126,
      "count": 192,
      "max": [
        0.06443321704864502,
        1.865727424621582,
        0.04038773849606514
      ],
      "min": [
        -0.06443279981613159,
        -1.340980052947998,
        -0.040387701243162155
      ],
      "type": "VEC3"
    },
    {
      "bufferView": 37,
      "componentType": 5125,
      "count": 21,
      "type": "SCALAR"
    },
    {
      "bufferView": 38,
      "componentType": 5126,
      "count": 192,
      "type": "VEC3"
    }
  ],
  "asset": {
    "version": "2.0"
  },
  "bufferViews": [
    {
      "buffer": 0,
      "byteLength": 5088,
      "target": 34962
    },
    {
      "buffer": 1,
      "byteLength": 2176,
      "target": 34963
    },
    {
      "buffer": 2,
      "byteLength": 5088,
      "target": 34962
    },
    {
      "buffer": 0,
      "byteLength": 5088,
      "target": 34962
    },
    {
      "buffer": 3,
      "byteLength": 240,
      "target": 34963
    },
    {
      "buffer": 2,
      "byteLength": 5088,
      "target": 34962
    },
    {
      "buffer": 4,
      "byteLength": 62784,
      "target": 34962
    },
    {
      "buffer": 5,
      "byteLength": 30656,
      "target": 34963
    },
    {
      "buffer": 6,
      "byteLength": 62784,
      "target": 34962
    },
    {
      "buffer": 4,
      "byteLength": 62784,
      "target": 34962
    },
    {
      "buffer": 7,
      "byteLength": 528,
      "target": 34963
    },
    {
      "buffer": 6,
      "byteLength": 62784,
      "target": 34962
    },
    {
      "buffer": 8,
      "byteLength": 62784,
      "target": 34962
    },
    {
      "buffer": 9,
      "byteLength": 30656,
      "target": 34963
    },
    {
      "buffer": 10,
      "byteLength": 62784,
      "target": 34962
    },
    {
      "buffer": 8,
      "byteLength": 62784,
      "target": 34962
    },
    {
      "buffer": 11,
      "byteLength": 528,
      "target": 34963
    },
    {
      "buffer": 10,
      "byteLength": 62784,
      "target": 34962
    },
    {
      "buffer": 12,
      "byteLength": 4656,
      "target": 34962
    },
    {
      "buffer": 13,
      "byteLength": 2320,
      "target": 34963
    },
    {
      "buffer": 14,
      "byteLength": 4656,
      "target": 34962
    },
    {
      "buffer": 12,
      "byteLength": 4656,
      "target": 34962
    },
    {
      "buffer": 15,
      "byteLength": 12,
      "target": 34963
    },
    {
      "buffer": 14,
      "byteLength": 4656,
      "target": 34962
    },
    {
      "buffer": 16,
      "byteLength": 3072,
      "target": 34962
    },
    {
      "buffer": 17,
      "byteLength": 1392,
      "target": 34963
    },
    {
      "buffer": 18,
      "byteLength": 3072,
      "target": 34962
    },
    {
      "buffer": 16,
      "byteLength": 3072,
      "target": 34962
    },
    {
      "buffer": 19,
      "byteLength": 108,
      "target": 34963
    },
    {
      "buffer": 18,
      "byteLength": 3072,
      "target": 34962
    },
    {
      "buffer": 20,
      "byteLength": 384,
      "target": 34962
    },
    {
      "buffer": 21,
      "byteLength": 232,
      "target": 34963
    },
    {
      "buffer": 22,
      "byteLength": 384,
      "target": 34962
    },
    {
      "buffer": 23,
      "byteLength": 2304,
      "target": 34962
    },
    {
      "buffer": 24,
      "byteLength": 1000,
      "target": 34963
    },
    {
      "buffer": 25,
      "byteLength": 2304,
      "target": 34962
    },
    {
      "buffer": 23,
      "byteLength": 2304,
      "target": 34962
    },
    {
      "buffer": 26,
      "byteLength": 84,
      "target": 34963
    },
    {
      "buffer": 25,
      "byteLength": 2304,
      "target": 34962
    }
  ],
  "buffers": [
    {
      "byteLength": 5088,
      "uri": "data:application/octet-stream;base64,"
    },
    {
      "byteLength": 2176,
      "uri": "data:application/octet-stream;base64,"
    },
    {
      "byteLength": 5088,
      "uri": "data:application/octet-stream;base64,"
    },
    {
      "byteLength": 240,
      "uri": "data:application/octet-stream;base64,"
    },
    {
      "byteLength": 62784,
      "uri": "data:application/octet-stream;base64,"
    },
    {
      "byteLength": 30656,
      "uri": "data:application/octet-stream;base64,"
    },
    {
      "byteLength": 62784,
      "uri": "data:application/octet-stream;base64,"
    },
    {
      "byteLength": 528,
      "uri": "data:application/octet-stream;base64,"
    },
    {
      "byteLength": 62784,
      "uri": "data:application/octet-stream;base64,"
    },
    {
      "byteLength": 30656,
      "uri": "data:application/octet-stream;base64,"
    },
    {
      "byteLength": 62784,
      "uri": "data:application/octet-stream;base64,"
    },
    {
      "byteLength": 528,
      "uri": "data:application/octet-stream;base64,"
    },
    {
      "byteLength": 4656,
      "uri": "data:application/octet-stream;base64,"
    },
    {
      "byteLength": 2320,
      "uri": "data:application/octet-stream;base64,"
    },
    {
      "byteLength": 4656,
      "uri": "data:application/octet-stream;base64,"
    },
    {
      "byteLength": 12,
      "uri": "data:application/octet-stream;base64,"
    },
    {
      "byteLength": 3072,
      "uri": "data:application/octet-stream;base64,"
    },
    {
      "byteLength": 1392,
      "uri": "data:application/octet-stream;base64,"
    },
    {
      "byteLength": 3072,
      "uri": "data:application/octet-stream;base64,"
    },
    {
      "byteLength": 108,
      "uri": "data:application/octet-stream;base64,"
    },
    {
      "byteLength": 384,
      "uri": "data:application/octet-stream;base64,"
    },
    {
      "byteLength": 232,
      "uri": "data:application/octet-stream;base64,"
    },
    {
      "byteLength": 384,
      "uri": "data:application/octet-stream;base64,"
    },
    {
      "byteLength": 2304,
      "uri": "data:application/octet-stream;base64,"
    },
    {
      "byteLength": 1000,
      "uri": "data:application/octet-stream;base64,"
    },
    {
      "byteLength": 2304,
      "uri": "data:application/octet-stream;base64,"
    },
    {
      "byteLength": 84,
      "uri": "data:application/octet-stream;base64,"
    }
  ],
  "meshes": [
    {
      "primitives": [
        {
          "attributes": {
            "NORMAL": 2,
            "POSITION": 0
          },
          "indices": 1,
          "mode": 5
        },
        {
          "attributes": {
            "NORMAL": 5,
            "POSITION": 3
          },
          "indices": 4,
          "mode": 4
        }
      ]
    },
    {
      "primitives": [
        {
          "attributes": {
            "NORMAL": 8,
            "POSITION": 6
          },
          "indices": 7,
          "mode": 5
        },
        {
          "attributes": {
            "NORMAL": 11,
            "POSITION": 9
          },
          "indices": 10,
          "mode": 4
        }
      ]
    },
    {
      "primitives": [
        {
          "attributes": {
            "NORMAL": 14,
            "POSITION": 12
          },
          "indices": 13,
          "mode": 5
        },
        {
          "attributes": {
            "NORMAL": 17,
            "POSITION": 15
          },
          "indices": 16,
          "mode": 4
        }
      ]
    },
    {
      "primitives": [
        {
          "attributes": {
            "NORMAL": 20,
            "POSITION": 18
          },
          "indices": 19,
          "mode": 5
        },
        {
          "attributes": {
            "NORMAL": 23,
            "POSITION": 21
          },
          "indices": 22,
          "mode": 4
        }
      ]
    },
    {
      "primitives": [
        {
          "attributes": {
            "NORMAL": 26,
            "POSITION": 24
          },
          "indices": 25,
          "mode": 5
        },
        {
          "attributes": {
            "NORMAL": 29,
            "POSITION": 27
          },
          "indices": 28,
          "mode": 4
        }
      ]
    },
    {
      "primitives": [
        {
          "attributes": {
            "NORMAL": 32,
            "POSITION": 30
          },
          "indices": 31,
          "mode": 5
        }
      ]
    },
    {
      "primitives": [
        {
          "attributes": {
            "NORMAL": 35,
            "POSITION": 33
          },
          "indices": 34,
          "mode": 5
        },
        {
          "attributes": {
            "NORMAL": 38,
            "POSITION": 36
          },
          "indices": 37,
          "mode": 4
        }
      ]
    }
  ],
  "nodes": [
    {
      "mesh": 0,
      "name": "_gltfNode_0"
    },
    {
      "children": [
        0
      ],
      "name": "Cylinder.002",
      "rotation": [
        -0.36801695502518644,
        0.2565501946810496,
        -0.5762954986057758,
        0.6831024935614299
      ],
      "scale": [
        0.9999995231628418,
        0.9999999403953552,
        0.9999997615814209
      ],
      "translation": [
        -0.7724369764328003,
        0.2845599949359894,
        -0.323855996131897
      ]
    },
    {
      "mesh": 1,
      "name": "_gltfNode_2"
    },
    {
      "children": [
        2
      ],
      "name": "Bootes",
      "rotation": [
        0.0,
        -0.3226433968331547,
        0.0,
        0.9465205959090185
      ],
      "scale": [
        0.4865177869796753,
        0.486517995595932,
        0.4865177869796753
      ],
      "translation": [
        -0.3192180097103119,
        0.4282020032405853,
        -0.04411059990525246
      ]
    },
    {
      "mesh": 2,
      "name": "_gltfNode_4"
    },
    {
      "children": [
        4
      ],
      "name": "Bootes.001",
      "rotation": [
        0.0,
        0.8763473819474119,
        0.0,
        -0.4816796302044721
      ],
      "scale": [
        0.48651838302612305,
        0.486517995595932,
        0.48651838302612305
      ],
      "translation": [
        0.1069910004734993,
        0.5631309747695923,
        0.8931679725646973
      ]
    },
    {
      "mesh": 3,
      "name": "_gltfNode_6"
    },
    {
      "mesh": 4,
      "name": "_gltfNode_7"
    },
    {
      "children": [
        7
      ],
      "name": "Spear",
      "rotation": [
        0.019663820670810364,
        0.018386583698661557,
        0.7301523962563322,
        0.682753795989188
      ],
      "scale": [
        1.000000238418579,
        1.0000004768371582,
        0.999999463558197
      ],
      "translation": [
        0.10102599859237671,
        0.05049410089850426,
        0.017130199819803238
      ]
    },
    {
      "mesh": 5,
      "name": "_gltfNode_9"
    },
    {
      "children": [
        9
      ],
      "name": "BezierCurve",
      "rotation": [
        -2.2351749999999974e-08,
        -1.769514999999998e-08,
        -1.3969849999999984e-09,
        0.9999999999999996
      ],
      "scale": [
        1.0,
        1.0,
        1.0
      ],
      "translation": [
        0.2682900130748749,
        0.6863660216331482,
        -2.831220058396866e-07
      ]
    },
    {
      "children": [
        6,
        8,
        10
      ],
      "name": "Cube.008",
      "rotation": [
        0.18998745450076746,
        0.9322257761141519,
        0.03425468939820638,
        -0.3060824819145589
      ],
      "scale": [
        1.0000004768371582,
        1.000000238418579,
        0.9999997019767761
      ],
      "translation": [
        0.9398869872093201,
        0.17001399397850037,
        0.7989169955253601
      ]
    },
    {
      "mesh": 6,
      "name": "_gltfNode_12"
    },
    {
      "children": [
        12
      ],
      "name": "Spear.001",
      "rotation": [
        -0.19557880095629507,
        0.25442904578977155,
        -0.5566029746186955,
        0.7662949314204451
      ],
      "scale": [
        1.0000001192092896,
        0.9999997615814209,
        1.0000004768371582
      ],
      "translation": [
        0.21231000125408173,
        0.0009217570186592638,
        0.05518610030412674
      ]
    },
    {
      "children": [
        1,
        3,
        5,
        11,
        13
      ],
      "name": "RootNode"
    },
    {
      "children": [
        14
      ],
      "name": "Gemini Constellation",
      "rotation": [
        1.1102230246251565e-16,
        0.0,
        0.0,
        1.0
      ],
      "scale": [
        1.0,
        1.0,
        1.0
      ],
      "translation": [
        0.0,
        0.0,
        0.0
      ]
    }
  ],
  "scene": 0,
  "scenes": [
    {
      "nodes": [
        15
      ]
    }
  ]
}
