{
  "accessors": [
    {
      "bufferView": 0,
      "componentType": 5126,
      "count": 15460,
      "max": [
        0.9675991535186768,
        1.204429030418396,
        1.1232080459594727
      ],
      "min": [
        -1.2613400220870972,
        -1.0121699571609497,
        -0.8602799773216248
      ],
      "type": "VEC3"
    },
    {
      "bufferView": 1,
      "componentType": 5125,
      "count": 22394,
      "type": "SCALAR"
    },
    {
      "bufferView": 2,
      "componentType": 5126,
      "count": 15460,
      "type": "VEC3"
    },
    {
      "bufferView": 3,
      "componentType": 5126,
      "count": 15460,
      "max": [
        0.9675991535186768,
        1.204429030418396,
        1.1232080459594727
      ],
      "min": [
        -1.2613400220870972,
        -1.0121699571609497,
        -0.8602799773216248
      ],
      "type": "VEC3"
    },
    {
      "bufferView": 4,
      "componentType": 5125,
      "count": 534,
      "type": "SCALAR"
    },
    {
      "bufferView": 5,
      "componentType": 5126,
      "count": 15460,
      "type": "VEC3"
    }
  ],
  "asset": {
    "version": "2.0"
  },
  "bufferViews": [
    {
      "buffer": 0,
      "byteLength": 185520,
      "target": 34962
    },
    {
      "buffer": 1,
      "byteLength": 89576,
      "target": 34963
    },
    {
      "buffer": 2,
      "byteLength": 185520,
      "target": 34962
    },
    {
      "buffer": 0,
      "byteLength": 185520,
      "target": 34962
    },
    {
      "buffer": 3,
      "byteLength": 2136,
      "target": 34963
    },
    {
      "buffer": 2,
      "byteLength": 185520,
      "target": 34962
    }
  ],
  "buffers": [
    {
      "byteLength": 185520,
      "uri": "data:application/octet-stream;base64,"
    },
    {
      "byteLength": 89576,
      "uri": "data:application/octet-stream;base64,"
    },
    {
      "byteLength": 185520,
      "uri": "data:application/octet-stream;base64,"
    },
    {
      "byteLength": 2136,
      "uri": "data:application/octet-stream;base64,"
    }
  ],
  "meshes": [
    {
      "name": "Peg__0",
      "primitives": [
        {
          "attributes": {
            "NORMAL": 2,
            "POSITION": 0
          },
          "indices": 1,
          "mode": 5
        },
        {
          "attributes": {
            "NORMAL": 5,
            "POSITION": 3
          },
          "indices": 4,
          "mode": 4
        }
      ]
    }
  ],
  "nodes": [
    {
      "mesh": 0,
      "name": "Peg__0"
    },
    {
      "children": [
        0
      ],
      "name": "Peg"
    },
    {
      "children": [
        1
      ],
      "name": "RootNode"
    },
    {
      "children": [
        2
      ],
      "name": "Pegasus Constellation",
      "rotation": [
        -0.0,
        1.1102230246251565e-16,
        1.0,
        0.0
      ],
      "scale": [
        -1.0,
        -1.0,
        -1.0
      ],
      "translation": [
        0.0,
        0.0,
        0.0
      ]
    }
  ],
  "scene": 0,
  "scenes": [
    {
      "nodes": [
        3
      ]
    }
  ]
}
