{
  "accessors": [
    {
      "bufferView": 0,
      "componentType": 5126,
      "count": 9006,
      "max": [
        0.7902151346206665,
        1.329494595527649,
        0.3136609196662903
      ],
      "min": [
        -0.9891870021820068,
        -0.738303005695343,
        -0.6778389811515808
      ],
      "type": "VEC3"
    },
    {
      "bufferView": 1,
      "componentType": 5125,
      "count": 13314,
      "type": "SCALAR"
    },
    {
      "bufferView": 2,
      "componentType": 5126,
      "count": 9006,
      "type": "VEC3"
    },
    {
      "bufferView": 3,
      "componentType": 5126,
      "count": 9006,
      "max": [
        0.7902151346206665,
        1.329494595527649,
        0.3136609196662903
      ],
      "min": [
        -0.9891870021820068,
        -0.738303005695343,
        -0.6778389811515808
      ],
      "type": "VEC3"
    },
    {
      "bufferView": 4,
      "componentType": 5125,
      "count": 150,
      "type": "SCALAR"
    },
    {
      "bufferView": 5,
      "componentType": 5126,
      "count": 9006,
      "type": "VEC3"
    }
  ],
  "asset": {
    "version": "2.0"
  },
  "bufferViews": [
    {
      "buffer": 0,
      "byteLength": 108072,
      "target": 34962
    },
    {
      "buffer": 1,
      "byteLength": 53256,
      "target": 34963
    },
    {
      "buffer": 2,
      "byteLength": 108072,
      "target": 34962
    },
    {
      "buffer": 0,
      "byteLength": 108072,
      "target": 34962
    },
    {
      "buffer": 3,
      "byteLength": 600,
      "target": 34963
    },
    {
      "buffer": 2,
      "byteLength": 108072,
      "target": 34962
    }
  ],
  "buffers": [
    {
      "byteLength": 108072,
      "uri": "data:application/octet-stream;base64,"
    },
    {
      "byteLength": 53256,
      "uri": "data:application/octet-stream;base64,"
    },
    {
      "byteLength": 108072,
      "uri": "data:application/octet-stream;base64,"
    },
    {
      "byteLength": 600,
      "uri": "data:application/octet-stream;base64,"
    }
  ],
  "materials": [
    {
      "name": "Internal_Static_Ice",
      "pbrMetallicRoughness": {
        "baseColorFactor": [
          0.800000011920929,
          0.800000011920929,
          0.800000011920929,
          1.0
        ]
      }
    }
  ],
  "meshes": [
    {
      "primitives": [
        {
          "attributes": {
            "NORMAL": 2,
            "POSITION": 0
          },
          "indices": 1,
          "mode": 5
        },
        {
          "attributes": {
            "NORMAL": 5,
            "POSITION": 3
          },
          "indices": 4,
          "mode": 4
        }
      ]
    }
  ],
  "nodes": [
    {
      "mesh": 0,
      "name": "_gltfNode_0"
    },
    {
      "children": [
        0
      ],
      "name": "Chest",
      "rotation": [
        0.0,
        0.0,
        0.0,
        1.0
      ],
      "scale": [
        0.6444640159606934,
        0.6444640159606934,
        0.6444640159606934
      ],
      "translation": [
        0.0,
        0.0,
        0.0
      ]
    },
    {
      "children": [
        1
      ],
      "name": "RootNode"
    },
    {
      "children": [
        2
      ],
      "name": "Aries Constellation",
      "rotation": [
        1.1102230246251565e-16,
        0.0,
        0.0,
        1.0
      ],
      "scale": [
        1.0,
        1.0,
        1.0
      ],
      "translation": [
        0.0,
        0.0,
        0.0
      ]
    }
  ],
  "scene": 0,
  "scenes": [
    {
      "nodes": [
        3
      ]
    }
  ]
}
