{
  "accessors": [
    {
      "bufferView": 0,
      "componentType": 5126,
      "count": 12958,
      "max": [
        1.0048280954360962,
        0.8058818578720093,
        0.6503607034683228
      ],
      "min": [
        -0.15024800598621368,
        -0.031567301601171494,
        -0.7556089758872986
      ],
      "type": "VEC3"
    },
    {
      "bufferView": 1,
      "componentType": 5125,
      "count": 18976,
      "type": "SCALAR"
    },
    {
      "bufferView": 2,
      "componentType": 5126,
      "count": 12958,
      "type": "VEC3"
    },
    {
      "bufferView": 3,
      "componentType": 5126,
      "count": 12958,
      "type": "VEC4"
    },
    {
      "bufferView": 4,
      "componentType": 5126,
      "count": 12958,
      "type": "VEC2"
    },
    {
      "bufferView": 5,
      "componentType": 5126,
      "count": 12958,
      "max": [
        1.0048280954360962,
        0.8058818578720093,
        0.6503607034683228
      ],
      "min": [
        -0.15024800598621368,
        -0.031567301601171494,
        -0.7556089758872986
      ],
      "type": "VEC3"
    },
    {
      "bufferView": 6,
      "componentType": 5125,
      "count": 1956,
      "type": "SCALAR"
    },
    {
      "bufferView": 7,
      "componentType": 5126,
      "count": 12958,
      "type": "VEC3"
    },
    {
      "bufferView": 8,
      "componentType": 5126,
      "count": 12958,
      "type": "VEC4"
    },
    {
      "bufferView": 9,
      "componentType": 5126,
      "count": 12958,
      "type": "VEC2"
    }
  ],
  "asset": {
    "version": "2.0"
  },
  "bufferViews": [
    {
      "buffer": 0,
      "byteLength": 155496,
      "target": 34962
    },
    {
      "buffer": 1,
      "byteLength": 75904,
      "target": 34963
    },
    {
      "buffer": 2,
      "byteLength": 155496,
      "target": 34962
    },
    {
      "buffer": 3,
      "byteLength": 207328,
      "target": 34962
    },
    {
      "buffer": 4,
      "byteLength": 103664,
      "target": 34962
    },
    {
      "buffer": 0,
      "byteLength": 155496,
      "target": 34962
    },
    {
      "buffer": 5,
      "byteLength": 7824,
      "target": 34963
    },
    {
      "buffer": 2,
      "byteLength": 155496,
      "target": 34962
    },
    {
      "buffer": 3,
      "byteLength": 207328,
      "target": 34962
    },
    {
      "buffer": 4,
      "byteLength": 103664,
      "target": 34962
    }
  ],
  "buffers": [
    {
      "byteLength": 155496,
      "uri": "data:application/octet-stream;base64,"
    },
    {
      "byteLength": 75904,
      "uri": "data:application/octet-stream;base64,"
    },
    {
      "byteLength": 155496,
      "uri": "data:application/octet-stream;base64,"
    },
    {
      "byteLength": 207328,
      "uri": "data:application/octet-stream;base64,"
    },
    {
      "byteLength": 103664,
      "uri": "data:application/octet-stream;base64,"
    },
    {
      "byteLength": 7824,
      "uri": "data:application/octet-stream;base64,"
    }
  ],
  "extensionsUsed": [
    "KHR_materials_specular"
  ],
  "images": [
    {
      "uri": "textures/Marble_4_diffuse.png"
    },
    {
      "uri": "textures/Marble_4_normal.png"
    },
    {
      "uri": "textures/Marble_4_specular.png"
    }
  ],
  "materials": [
    {
      "doubleSided": true,
      "extensions": {
        "KHR_materials_specular": {}
      },
      "name": "Marble",
      "normalTexture": {
        "index": 1
      },
      "pbrMetallicRoughness": {
        "baseColorFactor": [
          0.800000011920929,
          0.800000011920929,
          0.800000011920929,
          1.0
        ],
        "baseColorTexture": {
          "index": 0
        }
      }
    }
  ],
  "meshes": [
    {
      "name": "Canis_Venatici.010_Marble_0",
      "primitives": [
        {
          "attributes": {
            "NORMAL": 2,
            "POSITION": 0,
            "TANGENT": 3,
            "TEXCOORD_0": 4
          },
          "indices": 1,
          "material": 0,
          "mode": 5
        },
        {
          "attributes": {
            "NORMAL": 7,
            "POSITION": 5,
            "TANGENT": 8,
            "TEXCOORD_0": 9
          },
          "indices": 6,
          "material": 0,
          "mode": 4
        }
      ]
    }
  ],
  "nodes": [
    {
      "mesh": 0,
      "name": "Canis_Venatici.010_Marble_0"
    },
    {
      "children": [
        0
      ],
      "name": "Canis_Venatici.010",
      "rotation": [
        0.000409599473984153,
        0.13560876913909028,
        0.00065028060568977,
        0.9907621667665685
      ],
      "scale": [
        1.4327366352081299,
        1.4327317476272583,
        1.4327356815338135
      ],
      "translation": [
        -0.5990219712257385,
        0.04403790086507797,
        0.05223650112748146
      ]
    },
    {
      "children": [
        1
      ],
      "name": "RootNode"
    },
    {
      "children": [
        2
      ],
      "name": "Canes Venatici",
      "rotation": [
        1.1102230246251565e-16,
        0.0,
        0.0,
        1.0
      ],
      "scale": [
        1.0,
        1.0,
        1.0
      ],
      "translation": [
        0.0,
        0.0,
        0.0
      ]
    }
  ],
  "samplers": [
    {
      "magFilter": 9729,
      "minFilter": 9729,
      "wrapS": 10497,
      "wrapT": 10497
    },
    {
      "magFilter": 9729,
      "minFilter": 9729,
      "wrapS": 10497,
      "wrapT": 10497
    },
    {
      "magFilter": 9729,
      "minFilter": 9729,
      "wrapS": 10497,
      "wrapT": 10497
    }
  ],
  "scene": 0,
  "scenes": [
    {
      "nodes": [
        3
      ]
    }
  ],
  "textures": [
    {
      "sampler": 0,
      "source": 0
    },
    {
      "sampler": 1,
      "source": 1
    },
    {
      "sampler": 2,
      "source": 2
    }
  ]
}
