{
  "accessors": [
    {
      "bufferView": 0,
      "componentType": 5126,
      "count": 5162,
      "max": [
        1.1131395101547241,
        0.2822934687137604,
        0.33427903056144714
      ],
      "min": [
        -1.0662399530410767,
        -0.4982439875602722,
        -0.3636620044708252
      ],
      "type": "VEC3"
    },
    {
      "bufferView": 1,
      "componentType": 5125,
      "count": 7520,
      "type": "SCALAR"
    },
    {
      "bufferView": 2,
      "componentType": 5126,
      "count": 5162,
      "type": "VEC3"
    },
    {
      "bufferView": 3,
      "componentType": 5126,
      "count": 5162,
      "type": "VEC4"
    },
    {
      "bufferView": 4,
      "componentType": 5126,
      "count": 5162,
      "type": "VEC2"
    },
    {
      "bufferView": 5,
      "componentType": 5126,
      "count": 5162,
      "max": [
        1.1131395101547241,
        0.2822934687137604,
        0.33427903056144714
      ],
      "min": [
        -1.0662399530410767,
        -0.4982439875602722,
        -0.3636620044708252
      ],
      "type": "VEC3"
    },
    {
      "bufferView": 6,
      "componentType": 5125,
      "count": 147,
      "type": "SCALAR"
    },
    {
      "bufferView": 7,
      "componentType": 5126,
      "count": 5162,
      "type": "VEC3"
    },
    {
      "bufferView": 8,
      "componentType": 5126,
      "count": 5162,
      "type": "VEC4"
    },
    {
      "bufferView": 9,
      "componentType": 5126,
      "count": 5162,
      "type": "VEC2"
    }
  ],
  "asset": {
    "version": "2.0"
  },
  "bufferViews": [
    {
      "buffer": 0,
      "byteLength": 61944,
      "target": 34962
    },
    {
      "buffer": 1,
      "byteLength": 30080,
      "target": 34963
    },
    {
      "buffer": 2,
      "byteLength": 61944,
      "target": 34962
    },
    {
      "buffer": 3,
      "byteLength": 82592,
      "target": 34962
    },
    {
      "buffer": 4,
      "byteLength": 41296,
      "target": 34962
    },
    {
      "buffer": 0,
      "byteLength": 61944,
      "target": 34962
    },
    {
      "buffer": 5,
      "byteLength": 588,
      "target": 34963
    },
    {
      "buffer": 2,
      "byteLength": 61944,
      "target": 34962
    },
    {
      "buffer": 3,
      "byteLength": 82592,
      "target": 34962
    },
    {
      "buffer": 4,
      "byteLength": 41296,
      "target": 34962
    }
  ],
  "buffers": [
    {
      "byteLength": 61944,
      "uri": "data:application/octet-stream;base64,"
    },
    {
      "byteLength": 30080,
      "uri": "data:application/octet-stream;base64,"
    },
    {
      "byteLength": 61944,
      "uri": "data:application/octet-stream;base64,"
    },
    {
      "byteLength": 82592,
      "uri": "data:application/octet-stream;base64,"
    },
    {
      "byteLength": 41296,
      "uri": "data:application/octet-stream;base64,"
    },
    {
      "byteLength": 588,
      "uri": "data:application/octet-stream;base64,"
    }
  ],
  "meshes": [
    {
      "name": "Lyn__0",
      "primitives": [
        {
          "attributes": {
            "NORMAL": 2,
            "POSITION": 0,
            "TANGENT": 3,
            "TEXCOORD_0": 4
          },
          "indices": 1,
          "mode": 5
        },
        {
          "attributes": {
            "NORMAL": 7,
            "POSITION": 5,
            "TANGENT": 8,
            "TEXCOORD_0": 9
          },
          "indices": 6,
          "mode": 4
        }
      ]
    }
  ],
  "nodes": [
    {
      "mesh": 0,
      "name": "Lyn__0"
    },
    {
      "children": [
        0
      ],
      "name": "Lyn"
    },
    {
      "children": [
        1
      ],
      "name": "RootNode"
    },
    {
      "children": [
        2
      ],
      "name": "Lynx Constellation",
      "rotation": [
        -0.0,
        1.1102230246251565e-16,
        1.0,
        0.0
      ],
      "scale": [
        -1.0,
        -1.0,
        -1.0
      ],
      "translation": [
        0.0,
        0.0,
        0.0
      ]
    }
  ],
  "scene": 0,
  "scenes": [
    {
      "nodes": [
        3
      ]
    }
  ]
}
